<svg xmlns="http://www.w3.org/2000/svg" width="46.607" height="58.259" viewBox="0 0 46.607 58.259"><defs><style>.a{fill:#9f9f9f;}</style></defs><g transform="translate(0)"><g transform="translate(0)"><path class="a" d="M89.752,0h-36.9A4.861,4.861,0,0,0,48,4.855V31.071a4.861,4.861,0,0,0,4.855,4.855H66.132l-1.387,4.855H61.594v1.942h19.42V40.781H77.861l-1.387-4.855H89.752a4.861,4.861,0,0,0,4.855-4.855V4.855A4.861,4.861,0,0,0,89.752,0ZM66.765,40.781l1.387-4.855h6.3l1.387,4.855Zm25.9-9.71a2.913,2.913,0,0,1-2.913,2.913h-36.9a2.913,2.913,0,0,1-2.913-2.913V29.129H92.665Zm0-3.884H49.942V4.855a2.913,2.913,0,0,1,2.913-2.913h36.9a2.913,2.913,0,0,1,2.913,2.913Z" transform="translate(-48)"/></g><g transform="translate(2.913 44.665)"><path class="a" d="M100.158,368H72.971a.971.971,0,0,0-.971.971v11.652a.971.971,0,0,0,.971.971h27.187a.971.971,0,0,0,.971-.971V368.971A.971.971,0,0,0,100.158,368Zm-.971,11.652H73.942v-9.71H99.187Z" transform="translate(-72 -368)"/></g><g transform="translate(6.797 52.433)"><rect class="a" width="1.942" height="1.942"/></g><g transform="translate(6.797 48.549)"><rect class="a" width="1.942" height="1.942"/></g><g transform="translate(10.681 48.549)"><rect class="a" width="1.942" height="1.942"/></g><g transform="translate(14.565 48.549)"><rect class="a" width="1.942" height="1.942"/></g><g transform="translate(22.332 48.549)"><rect class="a" width="1.942" height="1.942"/></g><g transform="translate(18.449 48.549)"><rect class="a" width="1.942" height="1.942"/></g><g transform="translate(26.216 52.433)"><rect class="a" width="1.942" height="1.942"/></g><g transform="translate(26.216 48.549)"><rect class="a" width="1.942" height="1.942"/></g><g transform="translate(10.681 52.433)"><rect class="a" width="13.594" height="1.942"/></g><g transform="translate(33.984 44.665)"><path class="a" d="M332.855,368A4.855,4.855,0,0,0,328,372.855v3.884a4.855,4.855,0,1,0,9.71,0v-3.884A4.855,4.855,0,0,0,332.855,368Zm2.913,8.739a2.913,2.913,0,0,1-5.826,0v-3.884a2.913,2.913,0,1,1,5.826,0Z" transform="translate(-328 -368)"/></g><g transform="translate(37.868 48.549)"><rect class="a" width="1.942" height="1.942"/></g><g transform="translate(20.42 8.492)"><g transform="translate(0 0)"><rect class="a" width="14.131" height="1.941" transform="translate(0 13.586) rotate(-74.032)"/></g></g><g transform="translate(10.681 9.935)"><path class="a" d="M143.421,83.347l-1.243-1.491-5.826,4.855a.971.971,0,0,0,0,1.491l5.826,4.855,1.243-1.491-4.931-4.109Z" transform="translate(-136.004 -81.856)"/></g><g transform="translate(28.508 9.935)"><path class="a" d="M290.073,86.835a.968.968,0,0,0-.124-.124l-5.826-4.855-1.243,1.491,4.931,4.109-4.931,4.109,1.243,1.491,5.826-4.855A.971.971,0,0,0,290.073,86.835Z" transform="translate(-282.88 -81.856)"/></g></g></svg>