<svg xmlns="http://www.w3.org/2000/svg" width="57.703" height="57.703" viewBox="0 0 57.703 57.703"><defs><style>.a{fill:#9f9f9f;}</style></defs><g transform="translate(0)"><g transform="translate(47.56 11.27)"><path class="a" d="M423.127,100a1.127,1.127,0,1,0,1.127,1.127A1.127,1.127,0,0,0,423.127,100Z" transform="translate(-422 -100)"/></g><g transform="translate(7.889 11.27)"><path class="a" d="M71.127,100a1.127,1.127,0,1,0,1.127,1.127A1.127,1.127,0,0,0,71.127,100Z" transform="translate(-70 -100)"/></g><g transform="translate(50.08 15.007)"><path class="a" d="M450.853,142.945h-1.348a25.6,25.6,0,0,0-3.037-9.208,1.127,1.127,0,0,0-1.969,1.1,23.359,23.359,0,0,1,2.733,8.112h-.887a1.127,1.127,0,0,0-1.127,1.127v4.508a1.127,1.127,0,0,0,1.127,1.127h4.508a1.127,1.127,0,0,0,1.127-1.127v-4.508A1.127,1.127,0,0,0,450.853,142.945Zm-1.127,4.508h-2.254V145.2h2.254Z" transform="translate(-444.357 -133.158)"/></g><g transform="translate(16.454 11.27)"><path class="a" d="M170.792,121.709c0-.017,0-.035,0-.052s-.005-.047-.009-.071,0-.029-.007-.043-.012-.055-.019-.082c0-.01,0-.021-.008-.031-.01-.034-.022-.067-.035-.1l0-.011a1.116,1.116,0,0,0-.052-.11l-11.27-20.624a1.127,1.127,0,0,0-1.978,0l-11.27,20.624a1.111,1.111,0,0,0-.052.11l0,.011c-.013.032-.025.065-.035.1,0,.01-.005.02-.008.031-.007.027-.014.054-.019.082s0,.029-.007.043-.007.047-.009.071,0,.035,0,.052,0,.028,0,.043,0,.015,0,.022,0,.035,0,.053,0,.045.006.067,0,.031.007.047.009.048.015.072.007.027.01.04.015.051.024.076c0,.007,0,.014.007.021l4.064,10.771a3.381,3.381,0,0,0,.371,6.219v6.167a1.127,1.127,0,0,0,1.127,1.127h13.524a1.127,1.127,0,0,0,1.127-1.127v-6.165a3.381,3.381,0,0,0,.37-6.219l4.065-10.772c0-.007,0-.014.007-.021.009-.025.017-.05.024-.076s.007-.027.01-.04.01-.048.015-.072.005-.031.007-.047,0-.044.006-.067,0-.035,0-.053,0-.015,0-.022S170.793,121.723,170.792,121.709Zm-12.4-1.084a1.127,1.127,0,1,1-1.127,1.127A1.128,1.128,0,0,1,158.4,120.624Zm5.635,23.555h-11.27v-4.846h11.27Zm1.924-7.431a1.119,1.119,0,0,1-.8.33H151.635a1.127,1.127,0,0,1,0-2.254h13.528a1.126,1.126,0,0,1,.793,1.923Zm-1.576-4.178H152.414l-3.658-9.692h2.878a1.127,1.127,0,0,0,0-2.254h-2.608l8.243-15.085v13.024a3.381,3.381,0,1,0,2.254,0V105.54l8.243,15.085h-2.608a1.127,1.127,0,1,0,0,2.254h2.878Z" transform="translate(-146 -100)"/></g><g transform="translate(0 15.007)"><path class="a" d="M7.044,133.3a1.127,1.127,0,0,0-1.533.436,25.6,25.6,0,0,0-3.037,9.208H1.127A1.127,1.127,0,0,0,0,144.072v4.508a1.127,1.127,0,0,0,1.127,1.127H5.635a1.127,1.127,0,0,0,1.127-1.127v-4.508a1.127,1.127,0,0,0-1.127-1.127H4.748a23.36,23.36,0,0,1,2.733-8.112A1.127,1.127,0,0,0,7.044,133.3ZM4.508,147.453H2.254V145.2H4.508Z" transform="translate(0 -133.157)"/></g><path class="a" d="M54.322,0a3.386,3.386,0,0,0-3.187,2.254h-18.9V1.127A1.127,1.127,0,0,0,31.106,0H26.6a1.127,1.127,0,0,0-1.127,1.127V2.254H6.568a3.381,3.381,0,1,0,0,2.254H17.9a24.951,24.951,0,0,0-6.423,3.841,1.127,1.127,0,1,0,1.453,1.723A25.411,25.411,0,0,1,25.471,4.747v.888A1.127,1.127,0,0,0,26.6,6.762h4.508a1.127,1.127,0,0,0,1.127-1.127V4.747a25.412,25.412,0,0,1,12.542,5.326,1.127,1.127,0,0,0,1.453-1.723A24.951,24.951,0,0,0,39.8,4.508h11.33A3.381,3.381,0,1,0,54.322,0ZM3.381,4.508A1.127,1.127,0,1,1,4.508,3.381,1.128,1.128,0,0,1,3.381,4.508Zm26.6-1.127V4.508H27.725V2.254h2.254ZM54.322,4.508a1.127,1.127,0,1,1,1.127-1.127A1.128,1.128,0,0,1,54.322,4.508Z"/></g></svg>