<svg xmlns="http://www.w3.org/2000/svg" width="57.703" height="57.703" viewBox="0 0 57.703 57.703"><defs><style>.a{fill:#0038d1;}</style></defs><g transform="translate(0)"><path class="a" d="M93.75,3.847v9.617h1.923V3.847A1.923,1.923,0,0,1,97.6,1.923h38.469a1.923,1.923,0,0,1,1.923,1.923h1.923A3.847,3.847,0,0,0,136.066,0H97.6A3.847,3.847,0,0,0,93.75,3.847Zm0,0" transform="translate(-87.98)"/><path class="a" d="M3.847,526.928H48.086a3.847,3.847,0,0,0,3.847-3.847v-3.847H50.009v3.847a1.923,1.923,0,0,1-3.847,0V520.2a.961.961,0,0,0-.962-.962H7.694V500H5.77v19.234H.962A.961.961,0,0,0,0,520.2v2.885A3.847,3.847,0,0,0,3.847,526.928Zm-1.923-5.77H44.239v1.923A3.819,3.819,0,0,0,44.756,525H3.847a1.923,1.923,0,0,1-1.923-1.923Zm0,0" transform="translate(0 -469.225)"/><path class="a" d="M.962,263.464H20.2a.961.961,0,0,0,.962-.962V250.962A.961.961,0,0,0,20.2,250H.962a.961.961,0,0,0-.962.962V262.5A.961.961,0,0,0,.962,263.464Zm.962-11.541H19.234v9.617H1.923Zm0,0" transform="translate(0 -234.613)"/><path class="a" d="M64.71,317.078,62.786,319a.962.962,0,0,0,0,1.36l1.923,1.923,1.36-1.36-1.243-1.244,1.243-1.243Zm0,0" transform="translate(-58.658 -297.562)"/><path class="a" d="M224.688,317.078l-1.36,1.36,1.243,1.243-1.243,1.244,1.36,1.36,1.923-1.923a.962.962,0,0,0,0-1.36Zm0,0" transform="translate(-209.582 -297.562)"/><path class="a" d="M141.414,313.318l1.924-5.771,1.825.609-1.925,5.771Zm0,0" transform="translate(-132.71 -288.618)"/><path class="a" d="M408.66,93.75h-32.7a.961.961,0,0,0-.962.962v19.234a.961.961,0,0,0,.962.962h32.7a.961.961,0,0,0,.962-.962V94.712A.961.961,0,0,0,408.66,93.75Zm-.962,19.234H376.923v-2.341l8.636-5.182,8.42,5.445a.961.961,0,0,0,.962.046l6.963-3.606,5.795,3.31Zm0-4.542-5.289-3.025a.961.961,0,0,0-.92-.019l-6.931,3.59-8.454-5.468a.962.962,0,0,0-1.018-.016l-8.164,4.9V95.673H407.7Zm0,0" transform="translate(-351.919 -87.98)"/><path class="a" d="M690.866,162.982a3.366,3.366,0,1,0-3.366-3.366A3.366,3.366,0,0,0,690.866,162.982Zm0-4.809a1.443,1.443,0,1,1-1.443,1.443A1.442,1.442,0,0,1,690.866,158.173Zm0,0" transform="translate(-645.184 -146.633)"/><path class="a" d="M156.25,500.962V512.5a.961.961,0,0,0,.962.962h24.043a.961.961,0,0,0,.962-.962V500.962a.961.961,0,0,0-.962-.962H157.212A.961.961,0,0,0,156.25,500.962Zm1.923.962h22.12v9.617h-22.12Zm0,0" transform="translate(-146.633 -469.225)"/><path class="a" d="M218.75,562.5H222.6v1.923H218.75Zm0,0" transform="translate(-205.286 -527.878)"/><path class="a" d="M312.5,562.5h8.655v1.923H312.5Zm0,0" transform="translate(-293.266 -527.878)"/><path class="a" d="M484.375,562.5H486.3v1.923h-1.923Zm0,0" transform="translate(-454.562 -527.878)"/><path class="a" d="M218.75,625h11.541v1.923H218.75Zm0,0" transform="translate(-205.286 -586.531)"/><path class="a" d="M437.5,625h4.809v1.923H437.5Zm0,0" transform="translate(-410.572 -586.531)"/><path class="a" d="M156.25,62.5h1.923v1.923H156.25Zm0,0" transform="translate(-146.633 -58.653)"/><path class="a" d="M218.75,62.5h1.923v1.923H218.75Zm0,0" transform="translate(-205.286 -58.653)"/><path class="a" d="M281.25,62.5h1.923v1.923H281.25Zm0,0" transform="translate(-263.939 -58.653)"/><path class="a" d="M156.25,125h11.541v1.923H156.25Zm0,0" transform="translate(-146.633 -117.306)"/><path class="a" d="M628.609,562.5H610.337a.961.961,0,0,0-.962.962V575a.961.961,0,0,0,.962.962h18.273a.961.961,0,0,0,.962-.962V563.462A.961.961,0,0,0,628.609,562.5Zm-.962,11.541H611.3v-9.617h16.349Zm0,0" transform="translate(-571.868 -527.878)"/><path class="a" d="M671.875,625H673.8v1.923h-1.923Zm0,0" transform="translate(-630.521 -586.531)"/><path class="a" d="M671.875,687.5H673.8v1.923h-1.923Zm0,0" transform="translate(-630.521 -645.184)"/><path class="a" d="M734.375,625h8.656v1.923h-8.656Zm0,0" transform="translate(-689.174 -586.531)"/><path class="a" d="M734.375,687.5h8.656v1.923h-8.656Zm0,0" transform="translate(-689.174 -645.184)"/><path class="a" d="M812.5,468.75h1.923V472.6H812.5Zm0,0" transform="translate(-762.491 -439.898)"/></g></svg>